<svg width="100" height="100" viewBox="0 0 100 100" fill="none" xmlns="http://www.w3.org/2000/svg">
  <defs>
    <linearGradient id="dragonflyGrad" x1="0" y1="0" x2="100" y2="100" gradientUnits="userSpaceOnUse">
      <stop offset="0" stop-color="#10b981" />
      <stop offset="1" stop-color="#0ea5e9" />
    </linearGradient>
  </defs>
  
  <!-- Head -->
  <circle cx="65" cy="35" r="3" fill="url(#dragonflyGrad)" />
  
  <!-- Thorax -->
  <path d="M65 38 L60 45" stroke="url(#dragonflyGrad)" stroke-width="2.5" stroke-linecap="round" />
  
  <!-- Tail -->
  <path d="M60 45 L40 75" stroke="url(#dragonflyGrad)" stroke-width="1.5" stroke-linecap="round" stroke-dasharray="5 2" />

  <!-- Wings -->
  <g stroke="url(#dragonflyGrad)" stroke-width="1.2" fill="none">
    <!-- Upper Wing -->
    <path d="M62 40 C 50 25, 25 15, 20 25 C 18 30, 40 45, 62 40" />
    <path d="M62 40 L 25 25" stroke-width="0.5" opacity="0.8" />
    <path d="M55 35 L 30 30" stroke-width="0.5" opacity="0.6" />
    <path d="M50 38 L 35 40" stroke-width="0.5" opacity="0.6" />

    <!-- Lower Wing -->
    <path d="M60 45 C 50 50, 30 60, 25 55 C 22 50, 45 45, 60 45" />
    <path d="M60 45 L 30 55" stroke-width="0.5" opacity="0.8" />
    <path d="M50 48 L 35 52" stroke-width="0.5" opacity="0.6" />
  </g>
</svg>
